<?xml version="1.0" encoding="UTF-8" standalone="no"?>
<svg width="973" height="152" viewBox="0 0 973 152" fill="none" xmlns="http://www.w3.org/2000/svg">
<path fill-rule="evenodd" clip-rule="evenodd" d="M45.1145 0C38.6147 0 32.702 3.76109 29.9469 9.64814L2.32098 68.6793C0.215925 73.1774 0.215924 78.3778 2.32098 82.8759L9.27394 97.733L38.6385 40.2036C44.3605 28.9935 55.884 21.9375 68.47 21.9375H159.963L153.735 9.3295C150.912 3.61638 145.092 0 138.72 0H45.1145ZM170.373 43.4804L180.338 64.5717C177.375 63.3267 174.088 62.6289 170.574 62.6289H92.6092C79.7753 62.6289 68.0699 69.9626 62.4712 81.511L31.7439 144.893C31.0511 143.974 30.447 142.976 29.9469 141.907L18.2671 116.95L53.5542 47.817C56.4152 42.2119 62.177 38.6839 68.47 38.6839H162.803C166.041 38.6839 168.99 40.5519 170.373 43.4804ZM49.4906 151.555H138.72C145.092 151.555 150.912 147.939 153.735 142.226L163.77 121.91H79.6003C69.9748 121.91 61.1958 127.411 56.9968 136.072L49.4906 151.555ZM171.14 106.237L178.153 91.3087C180.761 85.7556 176.709 79.3753 170.574 79.3753H92.6092C86.1922 79.3753 80.3395 83.0422 77.5402 88.8164L68.9476 106.54C72.3767 105.638 75.952 105.164 79.6003 105.164H165.185C167.313 105.164 169.313 105.547 171.14 106.237Z" fill="#EF4B68"/>
<path d="M240.136 124.778V27.3438H273.058C280.67 27.3438 286.919 28.6442 291.803 31.245C296.687 33.814 300.303 37.3504 302.65 41.8542C304.997 46.358 306.171 51.4802 306.171 57.221C306.171 62.9617 304.997 68.0522 302.65 72.4926C300.303 76.9329 296.703 80.4217 291.851 82.9591C286.998 85.4647 280.797 86.7175 273.249 86.7175H246.607V76.0607H272.868C278.07 76.0607 282.256 75.2995 285.428 73.7771C288.631 72.2547 290.947 70.098 292.374 67.3069C293.833 64.4841 294.562 61.1221 294.562 57.221C294.562 53.3198 293.833 49.9103 292.374 46.9923C290.915 44.0744 288.584 41.8225 285.38 40.2367C282.177 38.6191 277.943 37.8103 272.678 37.8103H251.935V124.778H240.136ZM285.999 81.0085L309.977 124.778H296.275L272.678 81.0085H285.999ZM342.105 126.3C335.063 126.3 328.99 124.746 323.883 121.638C318.809 118.498 314.892 114.121 312.132 108.507C309.405 102.861 308.041 96.296 308.041 88.8108C308.041 81.3257 309.405 74.7286 312.132 69.0196C314.892 63.2789 318.729 58.8068 323.645 55.6034C328.593 52.3683 334.366 50.7508 340.963 50.7508C344.769 50.7508 348.527 51.3851 352.238 52.6538C355.949 53.9224 359.327 55.984 362.372 58.8385C365.416 61.6613 367.843 65.4039 369.651 70.0662C371.458 74.7286 372.362 80.4693 372.362 87.2884V92.0459H316.033V82.3406H360.944C360.944 78.2174 360.12 74.5383 358.47 71.3032C356.853 68.0681 354.538 65.5149 351.524 63.6436C348.543 61.7723 345.022 60.8367 340.963 60.8367C336.491 60.8367 332.621 61.9468 329.354 64.1669C326.119 66.3554 323.63 69.2099 321.885 72.7304C320.141 76.251 319.269 80.0253 319.269 84.0533V90.5235C319.269 96.0422 320.22 100.72 322.123 104.558C324.058 108.364 326.738 111.266 330.163 113.264C333.589 115.231 337.569 116.214 342.105 116.214C345.054 116.214 347.718 115.802 350.097 114.977C352.508 114.121 354.585 112.852 356.33 111.171C358.074 109.458 359.422 107.333 360.373 104.796L371.221 107.841C370.079 111.52 368.16 114.755 365.464 117.546C362.768 120.306 359.438 122.462 355.473 124.016C351.509 125.539 347.052 126.3 342.105 126.3ZM409.926 51.7023V61.2173H370.534V51.7023H409.926ZM382.332 124.778V41.6163C382.332 37.4297 383.315 33.9409 385.282 31.1498C387.248 28.3587 389.801 26.2654 392.941 24.8699C396.081 23.4744 399.396 22.7766 402.885 22.7766C405.644 22.7766 407.896 22.9986 409.64 23.4427C411.385 23.8867 412.685 24.299 413.541 24.6796L410.306 34.3849C409.735 34.1946 408.942 33.9567 407.928 33.6713C406.944 33.3858 405.644 33.2431 404.026 33.2431C400.316 33.2431 397.635 34.1788 395.986 36.0501C394.369 37.9213 393.56 40.6648 393.56 44.2805V124.778H382.332ZM433.014 126.49C428.384 126.49 424.181 125.618 420.407 123.874C416.633 122.098 413.635 119.544 411.415 116.214C409.195 112.852 408.085 108.792 408.085 104.035C408.085 99.8482 408.91 96.4546 410.559 93.8538C412.208 91.2213 414.413 89.1597 417.172 87.669C419.931 86.1783 422.976 85.0682 426.306 84.3388C429.668 83.5776 433.046 82.9749 436.44 82.5309C440.88 81.96 444.48 81.5318 447.239 81.2464C450.03 80.9292 452.06 80.4059 453.329 79.6764C454.629 78.9469 455.28 77.6783 455.28 75.8704V75.4898C455.28 70.7957 453.995 67.1483 451.426 64.5475C448.889 61.9468 445.035 60.6464 439.865 60.6464C434.505 60.6464 430.303 61.8199 427.258 64.1669C424.213 66.514 422.072 69.0196 420.835 71.6838L410.178 67.8778C412.081 63.4374 414.619 59.9803 417.79 57.5064C420.994 55.0008 424.483 53.2564 428.257 52.2732C432.063 51.2582 435.805 50.7508 439.485 50.7508C441.832 50.7508 444.528 51.0362 447.572 51.6071C450.649 52.1463 453.614 53.2722 456.469 54.9849C459.355 56.6976 461.75 59.2826 463.653 62.7397C465.556 66.1968 466.507 70.8274 466.507 76.6316V124.778H455.28V114.882H454.709C453.947 116.468 452.679 118.165 450.903 119.973C449.126 121.78 446.764 123.319 443.814 124.587C440.864 125.856 437.264 126.49 433.014 126.49ZM434.727 116.404C439.167 116.404 442.91 115.532 445.955 113.788C449.031 112.043 451.347 109.791 452.901 107.032C454.487 104.273 455.28 101.371 455.28 98.3258V88.0496C454.804 88.6205 453.757 89.1438 452.14 89.6196C450.554 90.0636 448.714 90.4601 446.621 90.809C444.559 91.1261 442.545 91.4116 440.579 91.6653C438.644 91.8873 437.074 92.0776 435.869 92.2362C432.951 92.6168 430.223 93.2353 427.686 94.0917C425.18 94.9163 423.15 96.1691 421.596 97.8501C420.074 99.4994 419.313 101.751 419.313 104.606C419.313 108.507 420.756 111.457 423.642 113.455C426.56 115.421 430.255 116.404 434.727 116.404ZM504.63 126.3C497.779 126.3 491.879 124.682 486.932 121.447C481.984 118.212 478.178 113.756 475.514 108.079C472.849 102.401 471.517 95.9154 471.517 88.6205C471.517 81.1988 472.881 74.6493 475.609 68.972C478.368 63.263 482.206 58.8068 487.122 55.6034C492.07 52.3683 497.842 50.7508 504.439 50.7508C509.577 50.7508 514.208 51.7023 518.331 53.6053C522.454 55.5083 525.832 58.1725 528.465 61.5979C531.097 65.0233 532.731 69.0196 533.365 73.5868H522.137C521.281 70.2565 519.378 67.3069 516.428 64.7378C513.51 62.1371 509.577 60.8367 504.63 60.8367C500.253 60.8367 496.415 61.9785 493.116 64.2621C489.85 66.514 487.296 69.7015 485.457 73.8247C483.649 77.9161 482.745 82.7212 482.745 88.2399C482.745 93.8855 483.633 98.8016 485.409 102.988C487.217 107.175 489.754 110.426 493.021 112.741C496.32 115.056 500.189 116.214 504.63 116.214C507.548 116.214 510.196 115.707 512.575 114.692C514.953 113.677 516.967 112.218 518.617 110.315C520.266 108.412 521.439 106.128 522.137 103.464H533.365C532.731 107.777 531.161 111.663 528.655 115.12C526.181 118.545 522.898 121.273 518.807 123.303C514.747 125.301 510.021 126.3 504.63 126.3ZM569.501 51.7023V61.2173H531.631V51.7023H569.501ZM542.669 34.1946H553.896V103.845C553.896 107.016 554.356 109.395 555.276 110.981C556.228 112.535 557.433 113.582 558.892 114.121C560.383 114.628 561.953 114.882 563.602 114.882C564.839 114.882 565.854 114.819 566.647 114.692C567.44 114.533 568.074 114.406 568.55 114.311L570.833 124.397C570.072 124.682 569.009 124.968 567.646 125.253C566.282 125.571 564.553 125.729 562.46 125.729C559.288 125.729 556.18 125.047 553.135 123.683C550.122 122.32 547.617 120.242 545.618 117.451C543.652 114.66 542.669 111.139 542.669 106.889V34.1946ZM603.235 126.3C596.638 126.3 590.849 124.73 585.87 121.59C580.922 118.45 577.053 114.057 574.261 108.412C571.502 102.766 570.122 96.1691 570.122 88.6205C570.122 81.0085 571.502 74.3639 574.261 68.6866C577.053 63.0093 580.922 58.6006 585.87 55.4607C590.849 52.3207 596.638 50.7508 603.235 50.7508C609.832 50.7508 615.604 52.3207 620.552 55.4607C625.532 58.6006 629.401 63.0093 632.16 68.6866C634.951 74.3639 636.347 81.0085 636.347 88.6205C636.347 96.1691 634.951 102.766 632.16 108.412C629.401 114.057 625.532 118.45 620.552 121.59C615.604 124.73 609.832 126.3 603.235 126.3ZM603.235 116.214C608.246 116.214 612.369 114.93 615.604 112.36C618.839 109.791 621.234 106.414 622.788 102.227C624.342 98.0404 625.119 93.5049 625.119 88.6205C625.119 83.7361 624.342 79.1848 622.788 74.9665C621.234 70.7482 618.839 67.3386 615.604 64.7378C612.369 62.1371 608.246 60.8367 603.235 60.8367C598.223 60.8367 594.1 62.1371 590.865 64.7378C587.63 67.3386 585.235 70.7482 583.681 74.9665C582.127 79.1848 581.35 83.7361 581.35 88.6205C581.35 93.5049 582.127 98.0404 583.681 102.227C585.235 106.414 587.63 109.791 590.865 112.36C594.1 114.93 598.223 116.214 603.235 116.214ZM641.428 124.778V51.7023H652.276V62.7397H653.037C654.369 59.124 656.779 56.1902 660.268 53.9383C663.757 51.6864 667.69 50.5605 672.067 50.5605C672.891 50.5605 673.922 50.5763 675.159 50.608C676.396 50.6397 677.332 50.6873 677.966 50.7508V62.1688C677.585 62.0736 676.713 61.9309 675.349 61.7406C674.017 61.5186 672.606 61.4076 671.115 61.4076C667.563 61.4076 664.391 62.1529 661.6 63.6436C658.841 65.1026 656.652 67.1324 655.035 69.7332C653.449 72.3023 652.656 75.2361 652.656 78.5346V124.778H641.428ZM729.647 124.778V135.244H668.751V124.778H729.647ZM795.863 57.7919C794.816 54.5885 793.437 51.7181 791.724 49.1808C790.043 46.6117 788.029 44.4233 785.682 42.6154C783.366 40.8076 780.734 39.4279 777.784 38.4764C774.835 37.5249 771.6 37.0491 768.079 37.0491C762.307 37.0491 757.057 38.5398 752.332 41.5212C747.606 44.5026 743.847 48.8953 741.056 54.6995C738.265 60.5037 736.87 67.6241 736.87 76.0607C736.87 84.4973 738.281 91.6178 741.104 97.4219C743.927 103.226 747.749 107.619 752.57 110.6C757.39 113.582 762.814 115.072 768.84 115.072C774.422 115.072 779.338 113.883 783.588 111.504C787.87 109.094 791.201 105.7 793.579 101.323C795.99 96.9144 797.195 91.7288 797.195 85.766L800.811 86.5272H771.504V76.0607H808.613V86.5272C808.613 94.5515 806.9 101.529 803.475 107.46C800.081 113.391 795.387 117.99 789.393 121.257C783.43 124.492 776.579 126.11 768.84 126.11C760.213 126.11 752.633 124.08 746.099 120.02C739.597 115.96 734.523 110.188 730.875 102.703C727.26 95.2176 725.452 86.3369 725.452 76.0607C725.452 68.3535 726.483 61.4234 728.544 55.2704C730.637 49.0856 733.587 43.8207 737.393 39.4755C741.199 35.1303 745.703 31.8 750.904 29.4847C756.106 27.1694 761.831 26.0117 768.079 26.0117C773.217 26.0117 778.006 26.7888 782.447 28.3429C786.919 29.8653 790.899 32.0379 794.388 34.8607C797.909 37.6517 800.842 40.9979 803.189 44.899C805.536 48.7685 807.154 53.0661 808.042 57.7919H795.863ZM825.448 27.3438L854.374 109.363H855.516L884.441 27.3438H896.811L861.035 124.778H848.855L813.079 27.3438H825.448ZM907.968 124.778V27.3438H919.767V114.311H965.058V124.778H907.968Z" fill="#EF4B68"/>
</svg>
